# xmcd CD database file
#
# Track frame offsets:
#	150
#	21855
#	52571
#	73649
#	97876
#	106152
#	126276
#	154014
#	182215
#	198609
#	216539
#	227545
#	250940
#
# Disc length: 4664 seconds
#
# Revision: 4
# Processed by: cddbd v1.5.1PL0 Copyright (c) Steve Scherf et al.
# Submitted via: CDex 1.51
#
DISCID=ad12360d
DTITLE=John Butler Trio - Sunrise Over Sea
DYEAR=2003
DGENRE=
TTITLE0=Treat Yo Mama
TTITLE1=Peaches And Cream
TTITLE2=Company Sin
TTITLE3=What You Want
TTITLE4=Damned To Hell
TTITLE5=Hello
TTITLE6=Bound To Ramble
TTITLE7=Seeing Angles
TTITLE8=There'll Come A Time
TTITLE9=Zebra
TTITLE10=Mist
TTITLE11=Old Man
TTITLE12=Sometimes
EXTD=YEAR: 2003
EXTT0=
EXTT1=
EXTT2=
EXTT3=
EXTT4=
EXTT5=
EXTT6=
EXTT7=
EXTT8=
EXTT9=
EXTT10=
EXTT11=
EXTT12=
PLAYORDER=
